<svg width="175" height="55" viewBox="0 0 175 55" fill="none" xmlns="http://www.w3.org/2000/svg">
<g clip-path="url(#clip0)">
<path d="M92.2289 13.7769C92.2289 15.7529 90.6435 17.3447 88.6753 17.3447C86.7072 17.3447 85.1218 15.7529 85.1218 13.7769C85.1218 11.801 86.6525 10.2092 88.6753 10.2092C90.6981 10.2641 92.2289 11.8559 92.2289 13.7769ZM77.5772 20.9673C77.5772 21.2966 77.5772 21.8455 77.5772 21.8455C77.5772 21.8455 75.8825 19.65 72.2742 19.65C66.3151 19.65 61.6681 24.2057 61.6681 30.5178C61.6681 36.7751 66.2605 41.3857 72.2742 41.3857C75.9371 41.3857 77.5772 39.1353 77.5772 39.1353V40.0684C77.5772 40.5075 77.9053 40.8368 78.3426 40.8368H82.7709V20.1989C82.7709 20.1989 78.7253 20.1989 78.3426 20.1989C77.9053 20.1989 77.5772 20.5831 77.5772 20.9673ZM77.5772 34.1954C76.7572 35.4029 75.1171 36.4458 73.1489 36.4458C69.65 36.4458 66.9712 34.2502 66.9712 30.5178C66.9712 26.7854 69.65 24.5899 73.1489 24.5899C75.0624 24.5899 76.8118 25.6877 77.5772 26.8403V34.1954ZM86.0511 20.1989H91.2995V40.8368H86.0511V20.1989ZM164.449 19.65C160.84 19.65 159.146 21.8455 159.146 21.8455V10.2641H153.897V40.8368C153.897 40.8368 157.943 40.8368 158.325 40.8368C158.763 40.8368 159.091 40.4526 159.091 40.0684V39.1353C159.091 39.1353 160.786 41.3857 164.394 41.3857C170.353 41.3857 175 36.7751 175 30.5178C175 24.2606 170.353 19.65 164.449 19.65ZM163.574 36.3909C161.551 36.3909 159.966 35.348 159.146 34.1405V26.7855C159.966 25.6877 161.715 24.535 163.574 24.535C167.073 24.535 169.752 26.7306 169.752 30.463C169.752 34.1954 167.073 36.3909 163.574 36.3909ZM151.164 28.5968V40.8917H145.915V29.2005C145.915 25.7975 144.822 24.4253 141.87 24.4253C140.284 24.4253 138.644 25.2486 137.605 26.4561V40.8368H132.357V20.1989H136.512C136.949 20.1989 137.277 20.5831 137.277 20.9673V21.8455C138.808 20.2538 140.831 19.65 142.854 19.65C145.15 19.65 147.063 20.3086 148.594 21.626C150.453 23.1628 151.164 25.1388 151.164 28.5968ZM119.619 19.65C116.011 19.65 114.316 21.8455 114.316 21.8455V10.2641H109.067V40.8368C109.067 40.8368 113.113 40.8368 113.496 40.8368C113.933 40.8368 114.261 40.4526 114.261 40.0684V39.1353C114.261 39.1353 115.956 41.3857 119.564 41.3857C125.523 41.3857 130.17 36.7751 130.17 30.5178C130.225 24.2606 125.578 19.65 119.619 19.65ZM118.744 36.3909C116.721 36.3909 115.136 35.348 114.316 34.1405V26.7855C115.136 25.6877 116.885 24.535 118.744 24.535C122.243 24.535 124.922 26.7306 124.922 30.463C124.922 34.1954 122.243 36.3909 118.744 36.3909ZM104.53 19.65C106.115 19.65 106.935 19.9244 106.935 19.9244V24.8095C106.935 24.8095 102.562 23.3275 99.8281 26.4561V40.8917H94.5797V20.1989C94.5797 20.1989 98.6254 20.1989 99.008 20.1989C99.4454 20.1989 99.7734 20.5831 99.7734 20.9673V21.8455C100.757 20.6929 102.89 19.65 104.53 19.65ZM50.0233 38.9706C49.75 38.312 49.4766 37.5984 49.2033 36.9947C48.7659 36.0067 48.3286 35.0736 47.9459 34.1954L47.8912 34.1405C44.1189 25.9072 40.0733 17.5642 35.809 9.331L35.645 9.00167C35.2077 8.17834 34.7703 7.30013 34.3329 6.42192C33.7862 5.43393 33.2395 4.39106 32.3648 3.40307C30.6154 1.20754 28.1005 0 25.4217 0C22.6881 0 20.228 1.20754 18.4238 3.29329C17.6038 4.28128 17.0024 5.32416 16.4557 6.31215C16.0183 7.19036 15.581 8.06857 15.1436 8.89189L14.9796 9.22122C10.77 17.4545 6.66971 25.7975 2.89745 34.0307L2.84278 34.1405C2.46009 35.0187 2.02272 35.9518 1.58536 36.9398C1.31201 37.5435 1.03866 38.2022 0.765303 38.9157C0.0545876 40.9466 -0.164094 42.8677 0.109258 44.8437C0.710633 48.9603 3.44415 52.4183 7.21641 53.9551C8.63784 54.5589 10.1139 54.8333 11.6447 54.8333C12.0821 54.8333 12.6288 54.7784 13.0661 54.7236C14.8703 54.504 16.7291 53.9002 18.5332 52.8574C20.7747 51.5949 22.9068 49.7836 25.3123 47.149C27.7178 49.7836 29.9046 51.5949 32.0915 52.8574C33.8956 53.9002 35.7544 54.504 37.5585 54.7236C37.9959 54.7784 38.5426 54.8333 38.9799 54.8333C40.5107 54.8333 42.0415 54.5589 43.4082 53.9551C47.2352 52.4183 49.914 48.9054 50.5154 44.8437C50.9527 42.9226 50.7341 41.0015 50.0233 38.9706ZM25.367 41.8248C22.4148 38.0924 20.5013 34.5796 19.8453 31.6156C19.5719 30.3532 19.5173 29.2554 19.6813 28.2674C19.7906 27.3892 20.1186 26.6208 20.556 25.9621C21.5947 24.4801 23.3442 23.547 25.367 23.547C27.3898 23.547 29.1939 24.4253 30.178 25.9621C30.6154 26.6208 30.9434 27.3892 31.0527 28.2674C31.2167 29.2554 31.1621 30.4081 30.8887 31.6156C30.2327 34.5247 28.3192 38.0375 25.367 41.8248ZM47.1805 44.4046C46.7978 47.2588 44.8843 49.7287 42.2055 50.8265C40.8934 51.3754 39.472 51.54 38.0505 51.3754C36.6838 51.2107 35.317 50.7716 33.8956 49.9483C31.9274 48.8505 29.9593 47.149 27.6631 44.6241C31.2714 40.1782 33.4582 36.1164 34.2783 32.4938C34.661 30.7923 34.7156 29.2554 34.5516 27.8283C34.3329 26.4561 33.8409 25.1937 33.0755 24.0959C31.3807 21.626 28.5379 20.1989 25.367 20.1989C22.1961 20.1989 19.3532 21.6808 17.6585 24.0959C16.8931 25.1937 16.401 26.4561 16.1824 27.8283C15.9637 29.2554 16.0183 30.8472 16.4557 32.4938C17.2758 36.1164 19.5173 40.2331 23.0708 44.679C20.8293 47.2039 18.8065 48.9054 16.8384 50.0032C15.417 50.8265 14.0502 51.2656 12.6835 51.4303C11.2074 51.5949 9.78592 51.3754 8.5285 50.8814C5.84965 49.7836 3.93619 47.3136 3.55349 44.4595C3.38948 43.0873 3.49882 41.715 4.04553 40.1782C4.20954 39.6293 4.48289 39.0804 4.75624 38.4218C5.13894 37.5435 5.5763 36.6104 6.01366 35.6773L6.06833 35.5676C9.84059 27.3892 13.8862 19.0462 18.0958 10.9228L18.2598 10.5934C18.6972 9.7701 19.1346 8.89189 19.5719 8.06857C20.0093 7.19036 20.5013 6.36703 21.1027 5.65349C22.2508 4.33617 23.7815 3.62262 25.4763 3.62262C27.1711 3.62262 28.7019 4.33617 29.85 5.65349C30.4513 6.36703 30.9434 7.19036 31.3807 8.06857C31.8181 8.89189 32.2555 9.7701 32.6928 10.5934L32.8568 10.9228C37.0118 19.1011 41.0574 27.4441 44.8297 35.6225V35.6773C45.267 36.5556 45.6497 37.5435 46.0871 38.4218C46.3604 39.0804 46.6338 39.6293 46.7978 40.1782C47.2352 41.6053 47.3992 42.9775 47.1805 44.4046Z" fill="#D3D3D3"/>
</g>
<defs>
<clipPath id="clip0">
<rect width="175" height="54.8333" fill="white"/>
</clipPath>
</defs>
</svg>
