<svg width="175" height="58" viewBox="0 0 175 58" fill="none" xmlns="http://www.w3.org/2000/svg">
<g clip-path="url(#clip0)">
<path d="M169.549 35.093L174.404 38.3294C172.828 40.6502 169.059 44.6319 162.544 44.6319C154.453 44.6319 148.427 38.372 148.427 30.4087C148.427 21.9343 154.517 16.1854 161.863 16.1854C169.251 16.1854 172.871 22.0621 174.042 25.2346L174.681 26.8529L155.645 34.731C157.093 37.5842 159.35 39.032 162.544 39.032C165.738 39.032 167.952 37.4564 169.549 35.093ZM154.623 29.9615L167.335 24.681C166.632 22.9138 164.545 21.6575 162.054 21.6575C158.882 21.6575 154.474 24.4681 154.623 29.9615Z" fill="#D3D3D3"/>
<path d="M139.25 1.68542H145.382V43.3331H139.25V1.68542Z" fill="#D3D3D3"/>
<path d="M129.584 17.2927H135.503V42.5879C135.503 53.085 129.307 57.4073 121.982 57.4073C115.084 57.4073 110.932 52.7656 109.377 48.9969L114.807 46.7399C115.786 49.0607 118.15 51.8074 121.982 51.8074C126.688 51.8074 129.584 48.8904 129.584 43.4396V41.3955H129.371C127.965 43.0989 125.283 44.6319 121.876 44.6319C114.764 44.6319 108.249 38.4359 108.249 30.4513C108.249 22.4241 114.764 16.1642 121.876 16.1642C125.261 16.1642 127.965 17.6759 129.371 19.3367H129.584V17.2927ZM130.009 30.4513C130.009 25.4263 126.667 21.7641 122.408 21.7641C118.107 21.7641 114.487 25.4263 114.487 30.4513C114.487 35.4124 118.107 39.0108 122.408 39.0108C126.667 39.0321 130.009 35.4124 130.009 30.4513Z" fill="#D3D3D3"/>
<path d="M74.5856 30.3449C74.5856 38.5424 68.198 44.5681 60.3624 44.5681C52.5268 44.5681 46.1392 38.5211 46.1392 30.3449C46.1392 22.1048 52.5268 16.1003 60.3624 16.1003C68.198 16.1003 74.5856 22.1048 74.5856 30.3449ZM68.3683 30.3449C68.3683 25.2347 64.6634 21.7215 60.3624 21.7215C56.0614 21.7215 52.3565 25.2347 52.3565 30.3449C52.3565 35.4124 56.0614 38.9682 60.3624 38.9682C64.6634 38.9682 68.3683 35.4124 68.3683 30.3449Z" fill="#D3D3D3"/>
<path d="M105.651 30.4087C105.651 38.6062 99.2634 44.6319 91.4278 44.6319C83.5923 44.6319 77.2046 38.6062 77.2046 30.4087C77.2046 22.1686 83.5923 16.1854 91.4278 16.1854C99.2634 16.1854 105.651 22.1473 105.651 30.4087ZM99.4124 30.4087C99.4124 25.2985 95.7076 21.7853 91.4065 21.7853C87.1055 21.7853 83.4006 25.2985 83.4006 30.4087C83.4006 35.4762 87.1055 39.032 91.4065 39.032C95.7289 39.032 99.4124 35.4549 99.4124 30.4087Z" fill="#D3D3D3"/>
<path d="M22.7603 38.3933C13.8389 38.3933 6.855 31.1965 6.855 22.275C6.855 13.3536 13.8389 6.1568 22.7603 6.1568C27.5724 6.1568 31.0856 8.05181 33.6833 10.4791L37.963 6.19938C34.3433 2.72874 29.51 0.088501 22.7603 0.088501C10.5386 0.088501 0.254395 10.0533 0.254395 22.275C0.254395 34.4968 10.5386 44.4616 22.7603 44.4616C29.3609 44.4616 34.3433 42.2898 38.2398 38.2443C42.2428 34.2413 43.4777 28.6201 43.4777 24.0636C43.4777 22.637 43.3074 21.1678 43.1157 20.0819H22.7603V26.0012H37.2604C36.8345 29.7061 35.6634 32.2398 33.9388 33.9645C31.8521 36.0724 28.5518 38.3933 22.7603 38.3933Z" fill="#D3D3D3"/>
</g>
<defs>
<clipPath id="clip0">
<rect width="175" height="57.4219" fill="white"/>
</clipPath>
</defs>
</svg>
