<svg width="76" height="62" viewBox="0 0 76 62" fill="none" xmlns="http://www.w3.org/2000/svg">
<path d="M75.5745 7.31704C72.816 8.50699 69.8141 9.36339 66.722 9.69694C69.9323 7.78973 72.3363 4.77666 73.4831 1.22304C70.4707 3.01508 67.1705 4.27169 63.7291 4.93713C62.2908 3.39945 60.5511 2.17446 58.6187 1.3385C56.6862 0.502534 54.6022 0.0735114 52.4967 0.0781624C43.9777 0.0781624 37.1265 6.98349 37.1265 15.4574C37.1265 16.6473 37.2707 17.8373 37.5051 18.9822C24.7492 18.3151 13.3725 12.2211 5.80911 2.89078C4.43097 5.24468 3.70878 7.92487 3.71767 10.6525C3.71767 15.9893 6.43113 20.695 10.5689 23.4625C8.13045 23.3665 5.74909 22.6962 3.61851 21.5063V21.6956C3.61851 29.1689 8.90118 35.362 15.9417 36.7864C14.6198 37.1298 13.2599 37.3054 11.8941 37.3092C10.8934 37.3092 9.94689 37.2101 8.99133 37.0749C10.9385 43.1688 16.6088 47.5951 23.3609 47.7393C18.0782 51.8771 11.4614 54.3111 4.27659 54.3111C2.98748 54.3111 1.79753 54.266 0.5625 54.1218C7.37768 58.494 15.4639 61.0181 24.1722 61.0181C52.4426 61.0181 67.912 37.5977 67.912 17.2694C67.912 16.6023 67.912 15.9352 67.8669 15.2681C70.8598 13.0775 73.4831 10.364 75.5745 7.31704Z" fill="#F6F6F6"/>
</svg>
