<svg width="414" height="58" viewBox="0 0 414 58" fill="none" xmlns="http://www.w3.org/2000/svg">
<g clip-path="url(#clip0)">
<rect width="414" height="58" fill="white"/>
<rect width="29" height="29" fill="#272A31"/>
<rect x="3" y="6.375" width="4.77295" height="28.6377" transform="rotate(-45 3 6.375)" fill="#17191E"/>
<rect x="23.25" y="3" width="4.77295" height="28.6377" transform="rotate(45 23.25 3)" fill="#17191E"/>
<rect x="7" y="15" width="10" height="10" transform="rotate(-45 7 15)" fill="#272A31"/>
<rect x="29" width="29" height="29" fill="#272A31"/>
<rect x="32" y="6.375" width="4.77295" height="28.6377" transform="rotate(-45 32 6.375)" fill="#17191E"/>
<rect x="52.25" y="3" width="4.77295" height="28.6377" transform="rotate(45 52.25 3)" fill="#17191E"/>
<rect x="36" y="15" width="10" height="10" transform="rotate(-45 36 15)" fill="#272A31"/>
<rect x="58" width="29" height="29" fill="#272A31"/>
<rect x="61" y="6.375" width="4.77295" height="28.6377" transform="rotate(-45 61 6.375)" fill="#17191E"/>
<rect x="81.25" y="3" width="4.77295" height="28.6377" transform="rotate(45 81.25 3)" fill="#17191E"/>
<rect x="65" y="15" width="10" height="10" transform="rotate(-45 65 15)" fill="#272A31"/>
<rect x="87" width="29" height="29" fill="#272A31"/>
<rect x="90" y="6.375" width="4.77295" height="28.6377" transform="rotate(-45 90 6.375)" fill="#17191E"/>
<rect x="110.25" y="3" width="4.77295" height="28.6377" transform="rotate(45 110.25 3)" fill="#17191E"/>
<rect x="94" y="15" width="10" height="10" transform="rotate(-45 94 15)" fill="#272A31"/>
<rect x="116" width="29" height="29" fill="#272A31"/>
<rect x="119" y="6.375" width="4.77295" height="28.6377" transform="rotate(-45 119 6.375)" fill="#17191E"/>
<rect x="139.25" y="3" width="4.77295" height="28.6377" transform="rotate(45 139.25 3)" fill="#17191E"/>
<rect x="123" y="15" width="10" height="10" transform="rotate(-45 123 15)" fill="#272A31"/>
<rect x="145" width="29" height="29" fill="#272A31"/>
<rect x="148" y="6.375" width="4.77295" height="28.6377" transform="rotate(-45 148 6.375)" fill="#17191E"/>
<rect x="168.25" y="3" width="4.77295" height="28.6377" transform="rotate(45 168.25 3)" fill="#17191E"/>
<rect x="152" y="15" width="10" height="10" transform="rotate(-45 152 15)" fill="#272A31"/>
<rect x="174" width="29" height="29" fill="#272A31"/>
<rect x="177" y="6.375" width="4.77295" height="28.6377" transform="rotate(-45 177 6.375)" fill="#17191E"/>
<rect x="197.25" y="3" width="4.77295" height="28.6377" transform="rotate(45 197.25 3)" fill="#17191E"/>
<rect x="181" y="15" width="10" height="10" transform="rotate(-45 181 15)" fill="#272A31"/>
<rect x="203" width="29" height="29" fill="#272A31"/>
<rect x="206" y="6.375" width="4.77295" height="28.6377" transform="rotate(-45 206 6.375)" fill="#17191E"/>
<rect x="226.25" y="3" width="4.77295" height="28.6377" transform="rotate(45 226.25 3)" fill="#17191E"/>
<rect x="210" y="15" width="10" height="10" transform="rotate(-45 210 15)" fill="#272A31"/>
<rect x="232" width="29" height="29" fill="#272A31"/>
<rect x="235" y="6.375" width="4.77295" height="28.6377" transform="rotate(-45 235 6.375)" fill="#17191E"/>
<rect x="255.25" y="3" width="4.77295" height="28.6377" transform="rotate(45 255.25 3)" fill="#17191E"/>
<rect x="239" y="15" width="10" height="10" transform="rotate(-45 239 15)" fill="#272A31"/>
<rect x="261" width="29" height="29" fill="#272A31"/>
<rect x="264" y="6.375" width="4.77295" height="28.6377" transform="rotate(-45 264 6.375)" fill="#17191E"/>
<rect x="284.25" y="3" width="4.77295" height="28.6377" transform="rotate(45 284.25 3)" fill="#17191E"/>
<rect x="268" y="15" width="10" height="10" transform="rotate(-45 268 15)" fill="#272A31"/>
<rect x="290" width="29" height="29" fill="#272A31"/>
<rect x="293" y="6.375" width="4.77295" height="28.6377" transform="rotate(-45 293 6.375)" fill="#17191E"/>
<rect x="313.25" y="3" width="4.77295" height="28.6377" transform="rotate(45 313.25 3)" fill="#17191E"/>
<rect x="297" y="15" width="10" height="10" transform="rotate(-45 297 15)" fill="#272A31"/>
<rect x="319" width="29" height="29" fill="#272A31"/>
<rect x="322" y="6.375" width="4.77295" height="28.6377" transform="rotate(-45 322 6.375)" fill="#17191E"/>
<rect x="342.25" y="3" width="4.77295" height="28.6377" transform="rotate(45 342.25 3)" fill="#17191E"/>
<rect x="326" y="15" width="10" height="10" transform="rotate(-45 326 15)" fill="#272A31"/>
<rect x="348" width="29" height="29" fill="#272A31"/>
<rect x="351" y="6.375" width="4.77295" height="28.6377" transform="rotate(-45 351 6.375)" fill="#17191E"/>
<rect x="371.25" y="3" width="4.77295" height="28.6377" transform="rotate(45 371.25 3)" fill="#17191E"/>
<rect x="355" y="15" width="10" height="10" transform="rotate(-45 355 15)" fill="#272A31"/>
<rect x="377" width="29" height="29" fill="#272A31"/>
<rect x="380" y="6.375" width="4.77295" height="28.6377" transform="rotate(-45 380 6.375)" fill="#17191E"/>
<rect x="400.25" y="3" width="4.77295" height="28.6377" transform="rotate(45 400.25 3)" fill="#17191E"/>
<rect x="384" y="15" width="10" height="10" transform="rotate(-45 384 15)" fill="#272A31"/>
<rect x="406" width="29" height="29" fill="#272A31"/>
<rect x="409" y="6.375" width="4.77295" height="28.6377" transform="rotate(-45 409 6.375)" fill="#17191E"/>
<rect x="429.25" y="3" width="4.77295" height="28.6377" transform="rotate(45 429.25 3)" fill="#17191E"/>
<rect x="413" y="15" width="10" height="10" transform="rotate(-45 413 15)" fill="#272A31"/>
<rect y="29" width="29" height="29" fill="#272A31"/>
<rect x="3" y="35.375" width="4.77295" height="28.6377" transform="rotate(-45 3 35.375)" fill="#17191E"/>
<rect x="23.25" y="32" width="4.77295" height="28.6377" transform="rotate(45 23.25 32)" fill="#17191E"/>
<rect x="7" y="44" width="10" height="10" transform="rotate(-45 7 44)" fill="#272A31"/>
<rect x="29" y="29" width="29" height="29" fill="#272A31"/>
<rect x="32" y="35.375" width="4.77295" height="28.6377" transform="rotate(-45 32 35.375)" fill="#17191E"/>
<rect x="52.25" y="32" width="4.77295" height="28.6377" transform="rotate(45 52.25 32)" fill="#17191E"/>
<rect x="36" y="44" width="10" height="10" transform="rotate(-45 36 44)" fill="#272A31"/>
<rect x="58" y="29" width="29" height="29" fill="#272A31"/>
<rect x="61" y="35.375" width="4.77295" height="28.6377" transform="rotate(-45 61 35.375)" fill="#17191E"/>
<rect x="81.25" y="32" width="4.77295" height="28.6377" transform="rotate(45 81.25 32)" fill="#17191E"/>
<rect x="65" y="44" width="10" height="10" transform="rotate(-45 65 44)" fill="#272A31"/>
<rect x="87" y="29" width="29" height="29" fill="#272A31"/>
<rect x="90" y="35.375" width="4.77295" height="28.6377" transform="rotate(-45 90 35.375)" fill="#17191E"/>
<rect x="110.25" y="32" width="4.77295" height="28.6377" transform="rotate(45 110.25 32)" fill="#17191E"/>
<rect x="94" y="44" width="10" height="10" transform="rotate(-45 94 44)" fill="#272A31"/>
<rect x="116" y="29" width="29" height="29" fill="#272A31"/>
<rect x="119" y="35.375" width="4.77295" height="28.6377" transform="rotate(-45 119 35.375)" fill="#17191E"/>
<rect x="139.25" y="32" width="4.77295" height="28.6377" transform="rotate(45 139.25 32)" fill="#17191E"/>
<rect x="123" y="44" width="10" height="10" transform="rotate(-45 123 44)" fill="#272A31"/>
<rect x="145" y="29" width="29" height="29" fill="#272A31"/>
<rect x="148" y="35.375" width="4.77295" height="28.6377" transform="rotate(-45 148 35.375)" fill="#17191E"/>
<rect x="168.25" y="32" width="4.77295" height="28.6377" transform="rotate(45 168.25 32)" fill="#17191E"/>
<rect x="152" y="44" width="10" height="10" transform="rotate(-45 152 44)" fill="#272A31"/>
<rect x="174" y="29" width="29" height="29" fill="#272A31"/>
<rect x="177" y="35.375" width="4.77295" height="28.6377" transform="rotate(-45 177 35.375)" fill="#17191E"/>
<rect x="197.25" y="32" width="4.77295" height="28.6377" transform="rotate(45 197.25 32)" fill="#17191E"/>
<rect x="181" y="44" width="10" height="10" transform="rotate(-45 181 44)" fill="#272A31"/>
<rect x="203" y="29" width="29" height="29" fill="#272A31"/>
<rect x="206" y="35.375" width="4.77295" height="28.6377" transform="rotate(-45 206 35.375)" fill="#17191E"/>
<rect x="226.25" y="32" width="4.77295" height="28.6377" transform="rotate(45 226.25 32)" fill="#17191E"/>
<rect x="210" y="44" width="10" height="10" transform="rotate(-45 210 44)" fill="#272A31"/>
<rect x="232" y="29" width="29" height="29" fill="#272A31"/>
<rect x="235" y="35.375" width="4.77295" height="28.6377" transform="rotate(-45 235 35.375)" fill="#17191E"/>
<rect x="255.25" y="32" width="4.77295" height="28.6377" transform="rotate(45 255.25 32)" fill="#17191E"/>
<rect x="239" y="44" width="10" height="10" transform="rotate(-45 239 44)" fill="#272A31"/>
<rect x="261" y="29" width="29" height="29" fill="#272A31"/>
<rect x="264" y="35.375" width="4.77295" height="28.6377" transform="rotate(-45 264 35.375)" fill="#17191E"/>
<rect x="284.25" y="32" width="4.77295" height="28.6377" transform="rotate(45 284.25 32)" fill="#17191E"/>
<rect x="268" y="44" width="10" height="10" transform="rotate(-45 268 44)" fill="#272A31"/>
<rect x="290" y="29" width="29" height="29" fill="#272A31"/>
<rect x="293" y="35.375" width="4.77295" height="28.6377" transform="rotate(-45 293 35.375)" fill="#17191E"/>
<rect x="313.25" y="32" width="4.77295" height="28.6377" transform="rotate(45 313.25 32)" fill="#17191E"/>
<rect x="297" y="44" width="10" height="10" transform="rotate(-45 297 44)" fill="#272A31"/>
<rect x="319" y="29" width="29" height="29" fill="#272A31"/>
<rect x="322" y="35.375" width="4.77295" height="28.6377" transform="rotate(-45 322 35.375)" fill="#17191E"/>
<rect x="342.25" y="32" width="4.77295" height="28.6377" transform="rotate(45 342.25 32)" fill="#17191E"/>
<rect x="326" y="44" width="10" height="10" transform="rotate(-45 326 44)" fill="#272A31"/>
<rect x="348" y="29" width="29" height="29" fill="#272A31"/>
<rect x="351" y="35.375" width="4.77295" height="28.6377" transform="rotate(-45 351 35.375)" fill="#17191E"/>
<rect x="371.25" y="32" width="4.77295" height="28.6377" transform="rotate(45 371.25 32)" fill="#17191E"/>
<rect x="355" y="44" width="10" height="10" transform="rotate(-45 355 44)" fill="#272A31"/>
<rect x="377" y="29" width="29" height="29" fill="#272A31"/>
<rect x="380" y="35.375" width="4.77295" height="28.6377" transform="rotate(-45 380 35.375)" fill="#17191E"/>
<rect x="400.25" y="32" width="4.77295" height="28.6377" transform="rotate(45 400.25 32)" fill="#17191E"/>
<rect x="384" y="44" width="10" height="10" transform="rotate(-45 384 44)" fill="#272A31"/>
<rect x="406" y="29" width="29" height="29" fill="#272A31"/>
<rect x="409" y="35.375" width="4.77295" height="28.6377" transform="rotate(-45 409 35.375)" fill="#17191E"/>
<rect x="429.25" y="32" width="4.77295" height="28.6377" transform="rotate(45 429.25 32)" fill="#17191E"/>
<rect x="413" y="44" width="10" height="10" transform="rotate(-45 413 44)" fill="#272A31"/>
</g>
<defs>
<clipPath id="clip0">
<rect width="414" height="58" fill="white"/>
</clipPath>
</defs>
</svg>
