<svg width="175" height="51" viewBox="0 0 175 51" fill="none" xmlns="http://www.w3.org/2000/svg">
<g clip-path="url(#clip0)">
<path d="M175 0H0V50.1667H175V0Z" fill="#272A31"/>
<path d="M167.142 36.0088C166.801 36.1053 166.512 36.1579 166.224 36.1579C165.2 36.1579 164.719 35.7193 164.719 34.4561V24.9211C164.719 19.9123 160.737 17.4737 156.03 17.4737C152.434 17.4737 150.5 17.9123 146.659 19.4649L145.801 24.5175L150.797 25.0526L151.506 22.5789C152.53 22.0439 153.545 21.9474 154.857 21.9474C158.401 21.9474 158.454 24.6228 158.454 26.8596V27.5877C157.334 27.4386 156.074 27.3947 154.857 27.3947C149.861 27.3947 144.664 28.6579 144.664 34.0614C144.664 38.6316 148.251 40.3421 151.41 40.3421C154.954 40.3421 157.185 38.2017 158.445 35.9649C158.734 38.6403 160.335 40.3421 163.249 40.3421C164.605 40.3421 166.014 39.9561 167.177 39.3158L167.142 36.0088ZM153.702 35.8684C151.812 35.8684 151.13 34.7456 151.13 33.3333C151.13 30.9474 153.072 30.3158 155.304 30.3158C156.319 30.3158 157.439 30.4649 158.462 30.6053C158.314 34.2632 155.934 35.8684 153.702 35.8684ZM145.294 6.3772L135.826 39.8596H129.657L139.125 6.3772H145.294ZM132.58 6.3772L123.112 39.8596H116.952L126.42 6.3772H132.58V6.3772ZM106.295 17.9123H112.849V25.7895H106.295V17.9123ZM106.295 31.9737H112.849V39.8596H106.295V31.9737ZM96.7574 31.6842L101.71 32.1667L100.354 39.8596H81.2262L80.5962 36.5526L92.6362 22.6842H85.7937L84.8224 26.0877L80.3074 25.5965L81.0862 17.9035H100.31L100.8 21.2105L88.6549 35.0877H95.7424L96.7574 31.6842ZM65.3887 17.4737C57.5225 17.4737 53.6375 22.7807 53.6375 29.2018C53.6375 36.2105 58.3012 40.3421 65.0475 40.3421C72.0387 40.3421 77.0874 35.9123 77.0874 28.9035C77.0874 22.7719 73.2462 17.4737 65.3887 17.4737ZM65.24 35.5263C61.845 35.5263 60.095 32.6053 60.095 28.807C60.095 24.6667 62.0812 22.2895 65.2925 22.2895C68.25 22.2895 70.63 24.2807 70.63 28.7105C70.63 32.8947 68.495 35.5263 65.24 35.5263ZM48.0025 35.0877H50.9162V39.8596H41.7375V27.5C41.7375 23.7018 40.4775 22.2456 38.0012 22.2456C34.9912 22.2456 33.775 24.386 33.775 27.4561V35.0877H36.6887V39.8596H27.5187V27.5C27.5187 23.7018 26.2587 22.2456 23.7825 22.2456C20.7725 22.2456 19.5562 24.386 19.5562 27.4561V35.0877H23.73V39.8596H10.3862V35.0877H13.3V22.6754H10.3862V17.9035H19.5562V21.2105C20.8687 18.8772 23.1525 17.4649 26.2062 17.4649C29.365 17.4649 32.27 18.9737 33.3462 22.1842C34.5625 19.2632 37.0387 17.4649 40.4862 17.4649C44.415 17.4649 48.0112 19.8509 48.0112 25.0526V35.0877H48.0025Z" fill="#D3D3D3"/>
</g>
<defs>
<clipPath id="clip0">
<rect width="175" height="50.1667" fill="white"/>
</clipPath>
</defs>
</svg>
