<svg width="1022" height="1022" viewBox="0 0 1022 1022" fill="none" xmlns="http://www.w3.org/2000/svg">
<path d="M830.375 127.75H191.625C174.69 127.769 158.454 134.505 146.48 146.48C134.505 158.454 127.769 174.69 127.75 191.625V830.375C127.769 847.31 134.505 863.546 146.48 875.52C158.454 887.495 174.69 894.231 191.625 894.25H830.375C847.31 894.231 863.546 887.495 875.52 875.52C887.495 863.546 894.231 847.31 894.25 830.375V191.625C894.231 174.69 887.495 158.454 875.52 146.48C863.546 134.505 847.31 127.769 830.375 127.75ZM747.789 747.793C741.799 753.781 733.676 757.145 725.207 757.145C716.737 757.145 708.614 753.781 702.625 747.793L274.211 319.375C268.282 313.373 264.968 305.269 264.993 296.833C265.018 288.396 268.381 280.312 274.346 274.346C280.312 268.38 288.395 265.017 296.832 264.991C305.269 264.965 313.373 268.278 319.375 274.207L747.789 702.625C750.754 705.591 753.107 709.112 754.712 712.986C756.317 716.861 757.143 721.015 757.143 725.209C757.143 729.403 756.317 733.556 754.712 737.431C753.107 741.306 750.754 744.827 747.789 747.793Z" fill="#D3D3D3"/>
</svg>
