<svg width="175" height="61" viewBox="0 0 175 61" fill="none" xmlns="http://www.w3.org/2000/svg">
<g clip-path="url(#clip0)">
<path d="M10.0683 43.4136C10.8079 45.3774 11.8317 47.0564 13.1401 48.4508C14.4485 49.8453 15.9985 50.9125 17.7903 51.6525C19.5822 52.3924 21.5304 52.7623 23.6351 52.7623C25.683 52.7623 27.6028 52.3781 29.3947 51.6096C31.1866 50.8411 32.7508 49.7598 34.0875 48.3654C35.4242 46.9709 36.4624 45.3062 37.2019 43.3709C37.9415 41.4357 38.3111 39.2731 38.3111 36.8824V0H47.2703V59.763H38.3965V54.2135C36.4056 56.3193 34.059 57.9415 31.3571 59.0801C28.6549 60.2183 25.7399 60.7875 22.6113 60.7875C19.4256 60.7875 16.4536 60.2325 13.6946 59.1226C10.9359 58.0127 8.5466 56.4334 6.52739 54.3843C4.50817 52.3352 2.91526 49.8739 1.74923 46.9994C0.583015 44.1251 0 40.9236 0 37.3945V0H8.95913V36.8824C8.95913 39.2731 9.3288 41.4499 10.0683 43.4136Z" fill="#D3D3D3"/>
<path d="M62.7135 0V21.7708C64.7044 19.7787 67.0083 18.1994 69.6249 17.0325C72.2415 15.8656 75.0857 15.2822 78.1573 15.2822C81.343 15.2822 84.329 15.8797 87.1165 17.075C89.9037 18.2702 92.3211 19.8924 94.369 21.9415C96.417 23.9907 98.0382 26.4095 99.2327 29.1984C100.427 31.9875 101.024 34.9472 101.024 38.0776C101.024 41.2079 100.427 44.1534 99.2327 46.9138C98.0382 49.6744 96.417 52.0792 94.369 54.128C92.3211 56.1771 89.9037 57.7993 87.1165 58.9945C84.329 60.1898 81.3428 60.7873 78.1573 60.7873C75.0856 60.7873 72.2273 60.2039 69.5822 59.037C66.9371 57.8703 64.619 56.2908 62.6281 54.2987V59.7628H54.0957V0H62.7135ZM63.6947 43.9685C64.4625 45.79 65.5292 47.3836 66.8945 48.7496C68.2597 50.1157 69.8524 51.1972 71.6726 51.994C73.493 52.7908 75.4554 53.1893 77.5602 53.1893C79.6081 53.1893 81.542 52.7908 83.3622 51.994C85.1824 51.1972 86.7608 50.1159 88.0979 48.7496C89.4346 47.3838 90.5011 45.79 91.2975 43.9685C92.0938 42.1472 92.492 40.1836 92.492 38.0776C92.492 35.9716 92.0938 33.9937 91.2975 32.1439C90.5011 30.2941 89.4346 28.6863 88.0979 27.3202C86.761 25.9544 85.1826 24.8871 83.3622 24.1188C81.5418 23.3504 79.6079 22.966 77.5602 22.966C75.5124 22.966 73.5784 23.3503 71.7581 24.1188C69.9379 24.8872 68.3452 25.9544 66.9798 27.3202C65.6148 28.6863 64.5339 30.2941 63.7375 32.1439C62.9412 33.9937 62.543 35.9716 62.543 38.0776C62.5428 40.1836 62.9268 42.1472 63.6947 43.9685Z" fill="#D3D3D3"/>
<path d="M105.887 29.2839C107.025 26.5519 108.589 24.1472 110.58 22.0698C112.571 19.9923 114.932 18.3559 117.662 17.1607C120.392 15.9654 123.35 15.3679 126.536 15.3679C129.664 15.3679 132.565 15.9371 135.239 17.0753C137.913 18.2137 140.216 19.7932 142.15 21.8138C144.084 23.8342 145.592 26.2249 146.672 28.9852C147.753 31.7458 148.294 34.7482 148.294 37.9926V40.81H112.884C113.168 42.5744 113.737 44.2108 114.59 45.7189C115.444 47.2271 116.51 48.5363 117.79 49.6462C119.07 50.7562 120.52 51.6242 122.142 52.2501C123.763 52.8762 125.483 53.1894 127.304 53.1894C132.48 53.1894 136.661 51.0549 139.847 46.786L146.075 51.3962C143.914 54.2991 141.24 56.5758 138.055 58.2263C134.869 59.8769 131.286 60.7022 127.304 60.7022C124.062 60.7022 121.033 60.1328 118.217 58.9946C115.401 57.8564 112.955 56.2626 110.879 54.2135C108.803 52.1643 107.167 49.7597 105.973 46.9993C104.778 44.2389 104.181 41.2364 104.181 37.9922C104.181 34.9188 104.75 32.016 105.887 29.2839ZM117.875 25.9115C115.458 27.9321 113.851 30.6214 113.055 33.9795H139.591C138.851 30.6214 137.273 27.9321 134.855 25.9115C132.437 23.8911 129.608 22.8808 126.365 22.8808C123.123 22.8808 120.293 23.8911 117.875 25.9115Z" fill="#D3D3D3"/>
<path d="M164.42 26.8933C162.599 28.8854 161.689 31.5889 161.689 35.0041V59.7632H153.071V16.2215H161.604V21.6002C162.685 19.8358 164.093 18.4412 165.827 17.4167C167.562 16.3921 169.624 15.8798 172.014 15.8798H175V23.9051H171.416C168.572 23.9053 166.24 24.9012 164.42 26.8933Z" fill="#D3D3D3"/>
</g>
<defs>
<clipPath id="clip0">
<rect width="175" height="60.7875" fill="white"/>
</clipPath>
</defs>
</svg>
